<?xml version="1.0" encoding="utf-8"?>
<svg xmlns="http://www.w3.org/2000/svg">
    <defs>
        <symbol id="ionos-logo" shape-rendering="geometricPrecision" viewBox="0 0 254.25 74.13">
            <title>IONOS</title>
            <g fill="currentColor" transform="translate(-7.52 -5.46)"><path d="m242.51 79.58a18.12 18.12 0 0 1 -3.74-.38 19.37 19.37 0 0 1 -12.77-9.14l-.07-.13a5.75 5.75 0 0 1 2.07-7.58 5.52 5.52 0 0 1 2.85-.79 5.64 5.64 0 0 1 4.91 2.88l.19.32.6.81.8.81a7.84 7.84 0 0 0 3.65 1.77 8 8 0 0 0 6.3-1.44 7.63 7.63 0 0 0 3.19-5.71 7.86 7.86 0 0 0 -2.19-6.12s-18.44-19-18.84-19.53l-.91-1.35a18 18 0 0 1 -2.77-11.34 18.41 18.41 0 0 1 2.39-7.84l.8-1.4a17 17 0 0 1 5.57-5.06l.91-.65a18.54 18.54 0 0 1 25 7 5.51 5.51 0 0 1 .58 4.26 5.63 5.63 0 0 1 -2.67 3.46 5.36 5.36 0 0 1 -2.75.75 5.61 5.61 0 0 1 -4.88-2.87 7.35 7.35 0 0 0 -4.93-3.49 7.65 7.65 0 0 0 -6 1.35 7.3 7.3 0 0 0 -2.8 5.33 7.44 7.44 0 0 0 2 5.72l17.33 17.87a19.18 19.18 0 0 1 -13.85 32.49z"/><path d="m187.69 79.57a18.65 18.65 0 0 1 -18.63-18.63v-36.85a18.63 18.63 0 1 1 37.26 0v36.85a18.65 18.65 0 0 1 -18.63 18.63zm0-62.86a7.39 7.39 0 0 0 -7.38 7.38v36.85a7.3 7.3 0 0 0 7.38 7.38 7.39 7.39 0 0 0 7.38-7.38v-36.85a7.48 7.48 0 0 0 -7.38-7.38z"/><path d="m115.33 43.47v30.53a5.62 5.62 0 0 1 -11.24 0v-53.87zm30.35 21.46v-53.85a5.63 5.63 0 0 0 -11.25 0v30.5zm-30.88-56.28v-.11a5.86 5.86 0 0 0 -5.09-3 5.15 5.15 0 0 0 -1.13.12 5.49 5.49 0 0 0 -4.44 5.47v1.29l30.86 64.07a5.8 5.8 0 0 0 5 3.08 5.18 5.18 0 0 0 1.29-.16 5.52 5.52 0 0 0 4.39-5.41v-1.27s-30.05-62.37-30.88-64.08z"/><path d="m61.92 79.57a18.64 18.64 0 0 1 -18.63-18.63v-36.85a18.63 18.63 0 0 1 37.26 0v36.85a18.64 18.64 0 0 1 -18.63 18.63zm0-62.86a7.37 7.37 0 0 0 -7.38 7.38v36.85a7.38 7.38 0 1 0 14.76 0v-36.85a7.48 7.48 0 0 0 -7.38-7.38z"/><path d="m13.63 79.54a6.08 6.08 0 0 1 -6.11-6.18v-61.87a6.11 6.11 0 0 1 6.15-6 6 6 0 0 1 5.9 4.51 4 4 0 0 1 .1.43v.27a5.47 5.47 0 0 1 .08 1s0 61 0 61.7a6.1 6.1 0 0 1 -6.12 6.14z"/></g>
        </symbol>
        <symbol id="arsys-logo" shape-rendering="geometricPrecision" viewBox="0 0 1277 356">
            <title>arsys</title>
            <path fill="currentColor" d="M365,139V289H299V149c0-29,5-53,14-72s23-34,39-45,35-19,57-24a308.4,308.4,0,0,1,68-8V55H461c-31,0-54,7-70,21C374,88,365,110,365,139ZM877,345q18-13.5,30-45L1013,0H972c-15,0-24,6-27,19L886,212,822,0H755l97,262c8,22,0,34-7,40-10,8-19,7-39,7h-5v47h16C845,356,865,355,877,345Zm185-81c19,16,49,24,89,24,42,0,74-8,94-23,21-16,32-38,32-68,0-20-6-35-18-47-14-12-39-22-75-31l-21-4c-44-9-64-21-64-38,0-12,5-21,14-27,9-5,21-8,38-8s31,4,42,12l1,1,3,3a43.49,43.49,0,0,1,6,7c10,12,16,16,25,16h38q-4.5-34.5-30-57c-21-16-50-24-86-24q-49.5,0-81,24c-19,17-29,37-29,63,0,20,6,35,19,47,12,12,37,23,74,32h1c6,2,16,4,29,6,14,3,54,11,54,38,0,8-3,20-17,28q-16.5,9-39,9c-20,0-37-4-49-12-11-8-17-18-19-32h-59C1034,229,1044,250,1062,264Zm-534,1c19,16,49,24,89,24,42,0,74-8,95-23,22-16,32-39,32-69,0-20-6-35-18-47-14-12-39-22-75-31l-21-4c-45-9-64-21-64-38,0-12,5-21,14-27s21-8,38-8,31,4,42,12l1,1,3,3,7,7c10,12,16,16,26,16h38q-4.5-34.5-30-57Q673.5,0,618,0c-33,0-61,8-81,24-20,17-29,38-29,63,0,20,6,35,19,47,12,12,37,23,75,32h1c6,2,16,4,29,6,14,3,54,11,54,38,0,8-3,20-18,28q-16.5,9-39,9c-20,0-37-4-49-13-11-8-17-18-20-32H501c-1,28,9,48,27,63ZM254,75V176c0,28-5,49-16,65-11,15-24,26-38,33-16,8-33,12-51,14l-49,3c-27,0-51-7-71-20C10,258,0,237,0,206c0-28,8-48,26-60,18-13,43-21,72-25l34-4c15-2,61-8,61-37,0-14-8-25-25-30a126.09,126.09,0,0,0-37-5,114.18,114.18,0,0,0-33,5c-10,2-18,7-23,15H22c-10,0-10-7-8-10A67.87,67.87,0,0,1,39,24Q69,0,126,0c43,0,76,7,97,20S254,51,254,75Zm-61,56-12,6c-11,5-26,10-45,14l-28,6c-16,4-27,9-35,16-10,9-11,21-11,31,0,14,5,25,14,33,9,7,21,11,37,11,25,0,44-7,59-20s22-32,22-55V131Z"/>
        </symbol>
        <symbol id="strato-logo" shape-rendering="geometricPrecision" viewBox="0 0 663 142">
            <title>STRATO</title>
            <g transform="matrix(1.25,0,0,-1.25,0,142.175)" id="g3012">
                <g transform="scale(0.1,0.1)" id="g3014">
                    <path d="m 555.586,978.672 c -87.676,0 -158.738,71.098 -158.738,158.748 l 555.593,0 c 87.669,0 158.729,-71.06 158.729,-158.748 l -0.01,-555.602 c -87.67,0 -158.738,71.075 -158.738,158.735 l 0.019,317.5 c 0,43.828 -35.546,79.367 -79.375,79.367 l -317.48,0" id="path3016" style="fill:currentColor;fill-opacity:1;fill-rule:nonzero;stroke:none" />
                    <path d="m 793.691,740.547 c 0,43.836 -35.539,79.383 -79.367,79.383 l -634.9607,0 C 35.5273,819.93 0,784.383 0,740.547 L 0,105.578 C 0,61.7383 35.5273,26.1992 79.3633,26.1992 l 634.9607,0 c 43.828,0 79.367,35.5391 79.367,79.3788 l 0,634.969" id="path3018" style="fill:currentColor;fill-opacity:1;fill-rule:nonzero;stroke:none" />
                    <path d="m 1902.31,103.531 c -44.02,-83.3005 -158.27,-89.2615 -246.33,-89.2615 -67.84,0 -135.67,4.7696 -174.94,8.3321 -48.78,4.7695 -61.88,16.6601 -61.88,41.6484 l 0,40.469 c 0,42.851 7.15,57.129 45.22,57.129 70.22,0 105.91,-9.52 209.45,-9.52 79.73,0 95.2,5.945 95.2,77.352 0,80.918 -1.18,86.867 -41.65,103.527 -51.17,21.426 -99.96,41.66 -149.94,63.074 -123.77,53.555 -148.75,77.356 -148.75,218.961 0,90.457 16.66,160.672 117.81,193.992 44.03,14.282 95.2,19.036 165.41,19.036 54.75,0 83.3,-2.372 134.48,-5.95 48.79,-3.574 63.07,-15.465 63.07,-41.648 l 0,-39.277 c 0,-42.832 -8.34,-57.122 -46.41,-57.122 -41.65,0 -45.23,7.141 -214.2,7.141 -66.65,0 -64.27,-28.555 -64.27,-86.875 0,-42.844 1.19,-52.367 41.65,-70.211 32.13,-14.285 65.45,-27.371 97.58,-41.648 165.42,-70.215 201.12,-86.875 201.12,-222.539 0,-45.227 -1.19,-124.953 -22.62,-166.61" id="path3020" style="fill:currentColor;fill-opacity:1;fill-rule:nonzero;stroke:none" />
                    <path d="m 2553.92,683.082 c -67.84,0 -123.75,1.191 -174.93,2.387 l 0,-608.1174 c 0,-35.711 -16.66,-52.3711 -51.17,-52.3711 l -51.17,0 c -39.28,0 -57.13,10.7187 -57.13,52.3711 l 0,608.1174 c -51.17,-1.196 -108.29,-2.387 -176.12,-2.387 -48.79,0 -49.98,30.941 -49.98,55.93 l 0,32.148 c 0,40.457 22.61,48.781 49.98,48.781 l 510.52,0 c 27.38,0 51.17,-8.324 51.17,-48.781 l 0,-32.148 c 0,-24.989 -2.38,-55.93 -51.17,-55.93" id="path3022" style="fill:currentColor;fill-opacity:1;fill-rule:nonzero;stroke:none" />
                    <path d="m 3042.47,674.754 c -19.02,9.519 -70.19,9.519 -91.62,9.519 -38.09,0 -69.02,-1.191 -102.34,-2.371 l 0,-232.066 134.47,0 c 42.83,0 64.26,7.141 77.34,23.801 10.72,14.285 14.28,33.32 14.28,77.351 0,48.793 -4.75,109.489 -32.13,123.766 z m 189.22,-649.7735 -71.41,0 c -29.74,0 -49.98,3.5781 -72.57,32.1289 l -202.31,257.0626 -36.89,0 0,-236.8204 c 0,-35.711 -15.47,-52.3711 -49.98,-52.3711 l -51.18,0 c -39.27,0 -58.32,10.7187 -58.32,52.3711 l 0,693.8084 c 0,46.406 32.13,48.781 58.32,48.781 l 220.16,0 c 124.94,0 157.09,-8.324 203.5,-55.929 44.02,-44.032 61.87,-120.203 61.87,-222.543 0,-97.578 -28.55,-158.281 -78.53,-192.785 -21.43,-14.286 -46.41,-23.797 -79.75,-28.563 L 3256.69,98.7617 c 23.79,-28.5508 28.55,-73.7812 -25,-73.7812" id="path3024" style="fill:currentColor;fill-opacity:1;fill-rule:nonzero;stroke:none" />
                    <path d="m 3690.75,618.816 -95.19,-280.843 c 27.36,0 59.51,1.191 94.02,1.191 36.88,0 61.88,-1.191 96.39,-1.191 l -95.22,280.843 z m 314.18,-593.8355 -65.45,0 c -36.89,0 -47.6,17.8593 -55.92,41.6484 L 3831.2,215.402 c -51.17,-1.191 -89.28,-1.191 -141.62,-1.191 -50,0 -94.02,0 -136.86,1.191 L 3505.11,74.9609 C 3494.4,42.8398 3484.89,24.9805 3444.42,24.9805 l -54.74,0 c -40.45,0 -46.41,10.7187 -46.41,28.5703 0,7.1406 3.58,21.4101 9.51,36.8789 L 3596.75,771.16 c 13.08,36.887 26.17,53.543 70.21,53.543 l 48.79,0 c 44.04,0 57.13,-16.656 70.22,-52.359 L 4043.02,78.5391 c 2.38,-5.961 4.76,-11.9102 4.76,-17.8477 0,-29.7617 -23.81,-35.7109 -42.85,-35.7109" id="path3026" style="fill:currentColor;fill-opacity:1;fill-rule:nonzero;stroke:none" />
                    <path d="m 4542.78,683.082 c -67.83,0 -123.77,1.191 -174.94,2.387 l 0,-608.1174 c 0,-35.711 -16.66,-52.3711 -51.17,-52.3711 l -51.17,0 c -39.28,0 -57.13,10.7187 -57.13,52.3711 l 0,608.1174 c -51.17,-1.196 -108.28,-2.387 -176.11,-2.387 -48.79,0 -49.98,30.941 -49.98,55.93 l 0,32.148 c 0,40.457 22.59,48.781 49.98,48.781 l 510.52,0 c 27.37,0 51.18,-8.324 51.18,-48.781 l 0,-32.148 c 0,-24.989 -2.39,-55.93 -51.18,-55.93" id="path3028" style="fill:currentColor;fill-opacity:1;fill-rule:nonzero;stroke:none" />
                    <path d="m 5113.25,627.148 c -26.17,55.926 -80.92,76.161 -147.56,76.161 -66.64,0 -121.38,-20.235 -147.56,-76.161 -22.61,-49.984 -26.19,-145.183 -26.19,-205.875 0,-60.683 3.58,-154.707 26.19,-204.687 26.18,-55.93 80.92,-77.356 147.56,-77.356 66.64,0 121.39,21.426 147.56,77.356 22.62,49.98 26.19,144.004 26.19,204.687 0,60.692 -3.57,155.891 -26.19,205.875 z M 5215.6,99.9609 C 5158.47,32.1289 5078.74,0 4965.69,0 4852.63,0 4770.52,32.1289 4714.6,99.9609 c -70.22,83.3051 -88.07,198.7341 -88.07,321.3121 0,122.567 17.85,238 88.07,321.313 58.3,69.023 140.41,99.973 251.09,99.973 110.67,0 191.59,-30.95 249.91,-99.973 70.21,-83.313 89.25,-198.746 89.25,-321.313 0,-122.578 -19.04,-238.007 -89.25,-321.3121" id="path3030" style="fill:currentColor;fill-opacity:1;fill-rule:nonzero;stroke:none" />
                </g>
            </g>
        </symbol>
        <symbol id="we22-logo" shape-rendering="geometricPrecision" viewBox="0 0 160 89">
            <title>we22</title>
            <g id="logo" transform="translate(30 28)">
                <path fill="currentColor" d="M0.235452 6.47916C0.164427 6.29001 0.0943755 5.67551 0.0943755 5.20214C0.0943755 2.45896 2.13658 0 5.7968 0C9.29356 0 11.4525 2.29333 11.4525 5.03652C11.4525 7.02309 10.3969 8.65489 8.44904 9.81429L5.56232 11.5412C5.11671 11.8244 4.74115 12.1321 4.53003 12.581L11.5702 12.581L11.5702 15.7025L0 15.7025C0 12.8887 0.798787 10.5709 3.59113 8.9391L6.07798 7.47294C7.2747 6.76338 7.74463 6.12536 7.74463 5.10806C7.74463 4.1378 7.06454 3.28711 5.70339 3.28711C4.27122 3.28711 3.56778 4.27991 3.56778 5.55791C3.56778 5.85682 3.61254 6.17828 3.70205 6.47916L0.235452 6.47916Z" transform="translate(73.55372 0)" stroke="none"/>
                <path fill="currentColor" d="M0.234499 6.47916C0.164441 6.29001 0.0934105 5.67551 0.0934105 5.20214C0.0934105 2.45896 2.13579 0 5.79729 0C9.29337 0 11.4525 2.29333 11.4525 5.03652C11.4525 7.02309 10.3958 8.65489 8.44878 9.81429L5.56182 11.5412C5.11617 11.8244 4.74058 12.1321 4.52944 12.581L11.5703 12.581L11.5703 15.7025L0 15.7025C0 12.8887 0.797881 10.5709 3.59047 8.9391L6.07849 7.47294C7.27532 6.76338 7.74431 6.12536 7.74431 5.10806C7.74431 4.1378 7.06417 3.28711 5.70291 3.28711C4.27158 3.28711 3.56711 4.27991 3.56711 5.55791C3.56711 5.85682 3.61187 6.17828 3.70139 6.47916L0.234499 6.47916Z" transform="translate(88.42975 0)" stroke="none"/>
                <path fill="currentColor" d="M26.0643 19.702C24.7008 24.2775 20.4479 28.0992 13.85 28.0992C6.48912 28.0992 0 22.8783 0 13.9422C0 5.49135 6.32486 0 13.1959 0C21.4839 0 26.4463 5.22186 26.4463 13.7274C26.4463 14.7497 26.3364 15.8267 26.3364 15.9341L7.14318 15.9341C7.30644 19.4325 10.3056 21.9634 13.9044 21.9634C17.2855 21.9634 19.1388 20.2947 20.0116 17.926L26.0643 19.702ZM19.3031 11.0364C19.1943 8.39813 17.4488 5.81455 13.3048 5.81455C9.5417 5.81455 7.47071 8.61293 7.30644 11.0364L19.3031 11.0364Z" transform="translate(42.97521 0)" stroke="none"/>
                <path fill="currentColor" d="M36.6368 0L31.6972 17.0398L25.9438 0L18.345 0L12.5374 16.9861L7.5978 0L0 0L8.52103 26.4463L15.8486 26.4463L21.9817 8.38516L28.2233 26.4463L35.4434 26.4463L43.8017 0L36.6368 0Z" transform="translate(0 0.8264463)" stroke="none"/>
            </g>
        </symbol>
        <symbol id="linkedin-logo" viewBox="0 0 24 24">
            <title>LinkedIn</title>
            <path fill="currentColor" d="M19.591 2.9998H4.345C4.1717 2.99379 3.99896 3.02251 3.83693 3.08427C3.6749 3.14603 3.52686 3.23957 3.40153 3.35941C3.2762 3.47924 3.17611 3.62293 3.10715 3.78203C3.0382 3.94113 3.00176 4.11241 3 4.2858V19.7138C3.00176 19.8872 3.0382 20.0585 3.10715 20.2176C3.17611 20.3767 3.2762 20.5204 3.40153 20.6402C3.52686 20.76 3.6749 20.8536 3.83693 20.9153C3.99896 20.9771 4.1717 21.0058 4.345 20.9998H19.655C20.0018 21.0004 20.3354 20.8669 20.5861 20.6272C20.8367 20.3876 20.985 20.0603 21 19.7138V4.2858C20.9712 3.93304 20.8099 3.60428 20.5484 3.36568C20.287 3.12708 19.9449 2.99636 19.591 2.9998ZM8.317 18.3638H5.69V9.7498H8.381V18.3638H8.317ZM6.972 8.59281C6.66657 8.59399 6.36766 8.50451 6.11313 8.33568C5.85859 8.16686 5.65989 7.92629 5.54218 7.64445C5.42448 7.36262 5.39306 7.05218 5.45192 6.75248C5.51078 6.45277 5.65726 6.17727 5.87281 5.96088C6.08836 5.74449 6.36329 5.59693 6.66276 5.53691C6.96224 5.47688 7.27279 5.50709 7.55509 5.62369C7.83738 5.7403 8.07872 5.93807 8.24854 6.19194C8.41835 6.44581 8.509 6.74437 8.509 7.04981C8.51208 7.25278 8.47448 7.45432 8.39841 7.64252C8.32233 7.83073 8.20933 8.00179 8.06607 8.14561C7.92281 8.28943 7.75219 8.4031 7.56428 8.4799C7.37637 8.55671 7.17499 8.5951 6.972 8.59281ZM18.31 18.3638H15.683V14.1858C15.683 13.2208 15.683 11.9358 14.274 11.9358C12.865 11.9358 12.674 13.0288 12.674 14.1208V18.3638H10.046V9.7498H12.609V10.9068H12.673C12.9311 10.4743 13.2973 10.1165 13.7357 9.86857C14.174 9.62063 14.6694 9.49113 15.173 9.49281C17.863 9.49281 18.373 11.2928 18.373 13.6068V18.3638H18.31Z"/>
        </symbol>
        <symbol id="facebook-logo" viewBox="0 0 24 24">
            <title>facebook</title>
            <path fill="currentColor" d="M11.9999 2C9.48243 1.99856 7.05705 2.94668 5.20799 4.65507C3.35894 6.36346 2.22227 8.70641 2.02493 11.2161C1.82759 13.7258 2.58411 16.2176 4.14343 18.194C5.70275 20.1704 7.95014 21.486 10.4369 21.878V14.891H7.89989V12H10.4389V9.8C10.3845 9.28542 10.4439 8.76517 10.6129 8.27608C10.7818 7.787 11.0563 7.34105 11.4167 6.96981C11.7772 6.59856 12.2149 6.3111 12.6988 6.12779C13.1827 5.94447 13.7009 5.86978 14.2169 5.909C14.9668 5.92078 15.7148 5.98763 16.4549 6.109V8.569H15.1919C14.977 8.54056 14.7585 8.5608 14.5524 8.62821C14.3464 8.69563 14.1582 8.8085 14.0017 8.95848C13.8452 9.10846 13.7244 9.2917 13.6483 9.49466C13.5722 9.69762 13.5426 9.91509 13.5619 10.131V12H16.3359L15.8929 14.891H13.5619V21.878C16.0486 21.486 18.2959 20.1705 19.8552 18.1942C21.4145 16.2179 22.1711 13.7263 21.9739 11.2166C21.7767 8.70699 20.6402 6.36405 18.7913 4.65558C16.9425 2.94711 14.5173 1.99881 11.9999 2Z"/>
        </symbol>
        <symbol id="twitter-logo" viewBox="0 0 1200 1227">
            <title>twitter x</title>
            <path fill="currentColor" d="M714.163 519.284L1160.89 0H1055.03L667.137 450.887L357.328 0H0L468.492 681.821L0 1226.37H105.866L515.491 750.218L842.672 1226.37H1200L714.137 519.284H714.163ZM569.165 687.828L521.697 619.934L144.011 79.6944H306.615L611.412 515.685L658.88 583.579L1055.08 1150.3H892.476L569.165 687.854V687.828Z"/>
        </symbol>
        <symbol id="github-logo" viewBox="0 0 16 16">
            <title>GitHub</title>
            <path fill="currentColor" d="M8 0C3.58 0 0 3.58 0 8c0 3.54 2.29 6.53 5.47 7.59.4.07.55-.17.55-.38 0-.19-.01-.82-.01-1.49-2.01.37-2.53-.49-2.69-.94-.09-.23-.48-.94-.82-1.13-.28-.15-.68-.52-.01-.53.63-.01 1.08.58 1.23.82.72 1.21 1.87.87 2.33.66.07-.52.28-.87.51-1.07-1.78-.2-3.64-.89-3.64-3.95 0-.87.31-1.59.82-2.15-.08-.2-.36-1.02.08-2.12 0 0 .67-.21 2.2.82.64-.18 1.32-.27 2-.27s1.36.09 2 .27c1.53-1.04 2.2-.82 2.2-.82.44 1.1.16 1.92.08 2.12.51.56.82 1.27.82 2.15 0 3.07-1.87 3.75-3.65 3.95.29.25.54.73.54 1.48 0 1.07-.01 1.93-.01 2.2 0 .21.15.46.55.38A8.01 8.01 0 0 0 16 8c0-4.42-3.58-8-8-8"/>
        </symbol>
        <symbol id="skype-logo" viewBox="0 0 16 16">
            <title>Skype</title>
            <path fill="currentColor" d="M4.671 0c.88 0 1.733.247 2.468.702a7.42 7.42 0 0 1 6.02 2.118 7.37 7.37 0 0 1 2.167 5.215q0 .517-.072 1.026a4.66 4.66 0 0 1 .6 2.281 4.64 4.64 0 0 1-1.37 3.294A4.67 4.67 0 0 1 11.18 16c-.84 0-1.658-.226-2.37-.644a7.42 7.42 0 0 1-6.114-2.107A7.37 7.37 0 0 1 .529 8.035q0-.545.08-1.081a4.644 4.644 0 0 1 .76-5.59A4.68 4.68 0 0 1 4.67 0zm.447 7.01c.18.309.43.572.729.769a7 7 0 0 0 1.257.653q.737.308 1.145.523c.229.112.437.264.615.448.135.142.21.331.21.528a.87.87 0 0 1-.335.723c-.291.196-.64.289-.99.264a2.6 2.6 0 0 1-1.048-.206 11 11 0 0 1-.532-.253 1.3 1.3 0 0 0-.587-.15.72.72 0 0 0-.501.176.63.63 0 0 0-.195.491.8.8 0 0 0 .148.482 1.2 1.2 0 0 0 .456.354 5.1 5.1 0 0 0 2.212.419 4.6 4.6 0 0 0 1.624-.265 2.3 2.3 0 0 0 1.08-.801c.267-.39.402-.855.386-1.327a2.1 2.1 0 0 0-.279-1.101 2.5 2.5 0 0 0-.772-.792A7 7 0 0 0 8.486 7.3a1 1 0 0 0-.145-.058 18 18 0 0 1-1.013-.447 1.8 1.8 0 0 1-.54-.387.73.73 0 0 1-.2-.508.8.8 0 0 1 .385-.723 1.76 1.76 0 0 1 .968-.247c.26-.003.52.03.772.096q.412.119.802.293c.105.049.22.075.336.076a.6.6 0 0 0 .453-.19.7.7 0 0 0 .18-.496.72.72 0 0 0-.17-.476 1.4 1.4 0 0 0-.556-.354 3.7 3.7 0 0 0-.708-.183 6 6 0 0 0-1.022-.078 4.5 4.5 0 0 0-1.536.258 2.7 2.7 0 0 0-1.174.784 1.9 1.9 0 0 0-.45 1.287c-.01.37.076.736.25 1.063"/>
        </symbol>
        <symbol id="youtube-logo" viewBox="0 0 24 24">
            <title>YouTube</title>
            <path fill="currentColor" d="M21.5816 7.15508C21.4684 6.72959 21.2456 6.34125 20.9353 6.02888C20.6251 5.71652 20.2383 5.49107 19.8135 5.37508C18.2535 4.95508 11.9995 4.95508 11.9995 4.95508C11.9995 4.95508 5.74555 4.95508 4.18555 5.37508C3.76084 5.49107 3.37401 5.71652 3.06375 6.02888C2.75349 6.34125 2.53066 6.72959 2.41755 7.15508C2.12921 8.75375 1.98928 10.3756 1.99955 12.0001C1.98928 13.6245 2.12921 15.2464 2.41755 16.8451C2.53066 17.2706 2.75349 17.6589 3.06375 17.9713C3.37401 18.2836 3.76084 18.5091 4.18555 18.6251C5.74555 19.0451 11.9995 19.0451 11.9995 19.0451C11.9995 19.0451 18.2535 19.0451 19.8135 18.6251C20.2383 18.5091 20.6251 18.2836 20.9353 17.9713C21.2456 17.6589 21.4684 17.2706 21.5816 16.8451C21.8699 15.2464 22.0098 13.6245 21.9995 12.0001C22.0098 10.3756 21.8699 8.75375 21.5816 7.15508ZM9.95455 14.9741V9.02608L15.1816 12.0001L9.95455 14.9741Z"/>
        </symbol>
        <symbol id="icon-lightbulb" viewBox="0 0 36 36">
            <title>Lightbulb</title>
            <path fill="currentColor" d="M16.774 6V3C16.774 2.448 17.221 2 17.774 2C18.327 2 18.774 2.448 18.774 3V6C18.774 6.552 18.327 7 17.774 7C17.221 7 16.774 6.552 16.774 6ZM31.274 24.639L28.668 23.134C28.189 22.858 27.579 23.021 27.302 23.5C27.026 23.978 27.19 24.59 27.668 24.866L30.274 26.371C30.431 26.462 30.603 26.505 30.773 26.505C31.119 26.505 31.455 26.326 31.64 26.005C31.916 25.527 31.752 24.915 31.274 24.639ZM25.486 9.808C25.772 9.808 26.055 9.686 26.253 9.451L28.182 7.153C28.537 6.73 28.482 6.099 28.059 5.744C27.635 5.389 27.004 5.446 26.651 5.867L24.722 8.165C24.367 8.588 24.422 9.219 24.845 9.574C25.033 9.731 25.259 9.808 25.486 9.808ZM32.374 14.41L29.42 14.931C28.876 15.027 28.513 15.546 28.609 16.09C28.694 16.575 29.116 16.916 29.592 16.916C29.65 16.916 29.708 16.911 29.767 16.901L32.721 16.38C33.265 16.284 33.628 15.765 33.532 15.221C33.436 14.677 32.914 14.312 32.374 14.41ZM5.95604 16.916C6.43304 16.916 6.85404 16.575 6.93904 16.09C7.03604 15.546 6.67204 15.027 6.12804 14.931L3.17304 14.41C2.62904 14.313 2.11104 14.677 2.01504 15.221C1.91804 15.765 2.28204 16.284 2.82604 16.38L5.78104 16.901C5.84004 16.911 5.89804 16.916 5.95604 16.916ZM9.29604 9.451C9.49304 9.686 9.77604 9.808 10.063 9.808C10.29 9.808 10.517 9.731 10.705 9.574C11.129 9.219 11.184 8.588 10.828 8.165L8.89904 5.867C8.54604 5.446 7.91604 5.388 7.49104 5.744C7.06704 6.099 7.01204 6.73 7.36804 7.153L9.29604 9.451ZM6.88204 23.134L4.23704 24.661C3.75804 24.937 3.59404 25.549 3.87104 26.027C4.05704 26.348 4.39204 26.527 4.73804 26.527C4.90804 26.527 5.08004 26.484 5.23704 26.393L7.88204 24.866C8.36104 24.59 8.52504 23.978 8.24804 23.5C7.97104 23.021 7.35804 22.857 6.88204 23.134ZM23.84 25.619C23.369 26.114 22.938 26.571 22.64 27H22.774C23.327 27 23.774 27.448 23.774 28V31.499C23.774 32.878 22.652 34 21.273 34H14.275C12.896 34 11.774 32.878 11.774 31.499V28C11.774 27.448 12.221 27 12.774 27H12.908C12.611 26.572 12.18 26.114 11.708 25.619C10.259 24.097 8.27304 22.012 8.27304 18.5C8.27304 13.262 12.535 9 17.773 9C23.011 9 27.273 13.262 27.273 18.5C27.273 22.012 25.288 24.097 23.838 25.619H23.84ZM21.774 29H13.774V31.499C13.774 31.775 13.999 32 14.275 32H21.273C21.549 32 21.774 31.775 21.774 31.499V29ZM20.401 27C20.736 25.979 21.546 25.128 22.391 24.24C23.743 22.821 25.274 21.212 25.274 18.5C25.274 14.364 21.91 11 17.774 11C13.638 11 10.274 14.364 10.274 18.5C10.274 21.212 11.805 22.821 13.157 24.24C14.003 25.128 14.812 25.979 15.147 27H20.401Z"/>
        </symbol>
        <symbol id="icon-hand-thumbs-up" viewBox="0 0 36 36">
            <title>Hand thumbs up</title>
            <path fill="currentColor" d="M30.872 14.071C30.754 14.024 30.628 14 30.5 14H22.229C22.5 12.622 22.893 10.393 22.893 9C22.893 6.742 20.126 2.85 19.81 2.414C19.622 2.154 19.321 2 19 2H16C15.448 2 15 2.448 15 3V9C15 10.343 13.817 13.079 13.228 14.303L10.566 15.967C10.041 15.092 9.093 14.5 8.001 14.5H3C2.448 14.5 2 14.948 2 15.5V32C2 32.552 2.448 33 3 33H8C9.056 33 9.982 32.448 10.517 31.621C11.96 32.582 14.581 34 17.5 34H29C32.088 34 34 27.771 34 22C34 15.51 31.191 14.2 30.872 14.071ZM9 30C9 30.551 8.551 31 8 31H4V16.5H8C8.551 16.5 9 16.949 9 17.5V30ZM29 32H17.5C14.612 32 11.935 30.211 11 29.514V18.055L14.53 15.849C14.686 15.751 14.812 15.613 14.895 15.448C15.11 15.017 17 11.174 17 9.001V4H18.481C19.516 5.509 20.893 7.89 20.893 9C20.893 10.866 20.033 14.743 20.024 14.782C19.958 15.078 20.03 15.388 20.22 15.625C20.41 15.862 20.697 16 21 16H30.224C30.652 16.327 32 17.699 32 22C32 28.222 29.917 32 29 32Z"/>
        </symbol>
        <symbol id="icon-balance-scale" viewBox="0 0 2176 1792">
            <title>FA Balance Scale</title>
            <path fill="currentColor" d="m1728 448l-384 704h768zm-1280 0L64 1152h768zm821-192q-14 40-45.5 71.5T1152 373v1291h608q14 0 23 9t9 23v64q0 14-9 23t-23 9H416q-14 0-23-9t-9-23v-64q0-14 9-23t23-9h608V373q-40-14-71.5-45.5T907 256H416q-14 0-23-9t-9-23v-64q0-14 9-23t23-9h491q21-57 70-92.5T1088 0t111 35.5t70 92.5h491q14 0 23 9t9 23v64q0 14-9 23t-23 9zm-181 16q33 0 56.5-23.5T1168 192t-23.5-56.5T1088 112t-56.5 23.5T1008 192t23.5 56.5T1088 272m1088 880q0 73-46.5 131t-117.5 91t-144.5 49.5T1728 1440t-139.5-16.5T1444 1374t-117.5-91t-46.5-131q0-11 35-81t92-174.5T1514 701t102-184t56-100q18-33 56-33t56 33q4 7 56 100t102 184t107 195.5t92 174.5t35 81m-1280 0q0 73-46.5 131T732 1374t-144.5 49.5T448 1440t-139.5-16.5T164 1374t-117.5-91T0 1152q0-11 35-81t92-174.5T234 701t102-184t56-100q18-33 56-33t56 33q4 7 56 100t102 184t107 195.5t92 174.5t35 81" />
        </symbol>
        <symbol id="icon-exclamation-circle" viewBox="0 0 36 36">
            <title>Exclamation circle</title>
            <path fill="currentColor" d="M18 1C8.611 1 1 8.611 1 18C1 27.389 8.611 35 18 35C27.389 35 35 27.389 35 18C35 8.611 27.389 1 18 1ZM18 33C9.729 33 3 26.271 3 18C3 9.729 9.729 3 18 3C26.271 3 33 9.729 33 18C33 26.271 26.271 33 18 33ZM19.5 26.5C19.5 27.328 18.828 28 18 28C17.172 28 16.5 27.328 16.5 26.5C16.5 25.672 17.172 25 18 25C18.828 25 19.5 25.672 19.5 26.5ZM17 21V9C17 8.448 17.448 8 18 8C18.552 8 19 8.448 19 9V21C19 21.552 18.552 22 18 22C17.448 22 17 21.552 17 21Z"/>
        </symbol>
        <symbol id="icon-list" viewBox="0 0 36 36">
            <title>List</title>
            <path fill="currentColor" d="M33 7.978H12C11.447 7.978 11 7.53 11 6.978C11 6.426 11.447 5.978 12 5.978H33C33.553 5.978 34 6.426 34 6.978C34 7.53 33.553 7.978 33 7.978ZM34 18C34 17.448 33.553 17 33 17H12C11.447 17 11 17.448 11 18C11 18.552 11.447 19 12 19H33C33.553 19 34 18.552 34 18ZM34 29C34 28.448 33.553 28 33 28H12C11.447 28 11 28.448 11 29C11 29.552 11.447 30 12 30H33C33.553 30 34 29.552 34 29ZM8 30.5V27.5C8 26.673 7.327 26 6.5 26H3.5C2.673 26 2 26.673 2 27.5V30.5C2 31.327 2.673 32 3.5 32H6.5C7.327 32 8 31.327 8 30.5ZM4 28H6V30H4V28ZM8 19.5V16.5C8 15.673 7.327 15 6.5 15H3.5C2.673 15 2 15.673 2 16.5V19.5C2 20.327 2.673 21 3.5 21H6.5C7.327 21 8 20.327 8 19.5ZM4 17H6V19H4V17ZM8 8.5V5.5C8 4.673 7.327 4 6.5 4H3.5C2.673 4 2 4.673 2 5.5V8.5C2 9.327 2.673 10 3.5 10H6.5C7.327 10 8 9.327 8 8.5ZM4 6H6V8H4V6Z"/>
        </symbol>
        <symbol id="icon-list-ul" viewBox="0 0 16 16">
            <title>List ul</title>
            <path fill="currentColor" fill-rule="evenodd" d="M5 11.5a.5.5 0 0 1 .5-.5h9a.5.5 0 0 1 0 1h-9a.5.5 0 0 1-.5-.5m0-4a.5.5 0 0 1 .5-.5h9a.5.5 0 0 1 0 1h-9a.5.5 0 0 1-.5-.5m0-4a.5.5 0 0 1 .5-.5h9a.5.5 0 0 1 0 1h-9a.5.5 0 0 1-.5-.5m-3 1a1 1 0 1 0 0-2 1 1 0 0 0 0 2m0 4a1 1 0 1 0 0-2 1 1 0 0 0 0 2m0 4a1 1 0 1 0 0-2 1 1 0 0 0 0 2"/>
        </symbol>
        <symbol id="icon-book" viewBox="0 0 16 16">
            <title>Book</title>
            <path fill="currentColor" d="M1 2.828c.885-.37 2.154-.769 3.388-.893 1.33-.134 2.458.063 3.112.752v9.746c-.935-.53-2.12-.603-3.213-.493-1.18.12-2.37.461-3.287.811V2.828zm7.5-.141c.654-.689 1.782-.886 3.112-.752 1.234.124 2.503.523 3.388.893v9.923c-.918-.35-2.107-.692-3.287-.81-1.094-.111-2.278-.039-3.213.492V2.687zM8 1.783C7.015.936 5.587.81 4.287.94c-1.514.153-3.042.672-3.994 1.105A.5.5 0 0 0 0 2.5v11a.5.5 0 0 0 .707.455c.882-.4 2.303-.881 3.68-1.02 1.409-.142 2.59.087 3.223.877a.5.5 0 0 0 .78 0c.633-.79 1.814-1.019 3.222-.877 1.378.139 2.8.62 3.681 1.02A.5.5 0 0 0 16 13.5v-11a.5.5 0 0 0-.293-.455c-.952-.433-2.48-.952-3.994-1.105C10.413.809 8.985.936 8 1.783"/>
        </symbol>
        <symbol id="icon-chat-left-quote" viewBox="0 0 16 16">
            <title>Chat left quote</title>
            <path fill="currentColor" d="M14 1a1 1 0 0 1 1 1v8a1 1 0 0 1-1 1H4.414A2 2 0 0 0 3 11.586l-2 2V2a1 1 0 0 1 1-1zM2 0a2 2 0 0 0-2 2v12.793a.5.5 0 0 0 .854.353l2.853-2.853A1 1 0 0 1 4.414 12H14a2 2 0 0 0 2-2V2a2 2 0 0 0-2-2z"/>
            <path fill="currentColor" d="M7.066 4.76A1.665 1.665 0 0 0 4 5.668a1.667 1.667 0 0 0 2.561 1.406c-.131.389-.375.804-.777 1.22a.417.417 0 1 0 .6.58c1.486-1.54 1.293-3.214.682-4.112zm4 0A1.665 1.665 0 0 0 8 5.668a1.667 1.667 0 0 0 2.561 1.406c-.131.389-.375.804-.777 1.22a.417.417 0 1 0 .6.58c1.486-1.54 1.293-3.214.682-4.112z"/>
        </symbol>
        <symbol id="icon-breadcrumb-divider" viewBox="0 0 16 16">
            <title>Breadcrumb divider</title>
            <path fill="currentColor" fill-rule="evenodd" d="M4.646 1.646a.5.5 0 0 1 .708 0l6 6a.5.5 0 0 1 0 .708l-6 6a.5.5 0 0 1-.708-.708L10.293 8 4.646 2.354a.5.5 0 0 1 0-.708z"/>
        </symbol>
        <symbol id="icon-toc" viewBox="0 0 16 16">
            <title>Table of contents</title>
            <path fill="currentColor" fill-rule="evenodd" d="M2.5 12a.5.5 0 0 1 .5-.5h10a.5.5 0 0 1 0 1H3a.5.5 0 0 1-.5-.5m0-4a.5.5 0 0 1 .5-.5h10a.5.5 0 0 1 0 1H3a.5.5 0 0 1-.5-.5m0-4a.5.5 0 0 1 .5-.5h10a.5.5 0 0 1 0 1H3a.5.5 0 0 1-.5-.5"/>
        </symbol>
        <symbol id="icon-toc2" viewBox="0 0 16 16">
            <title>Table of contents</title>
            <path fill="currentColor" fill-rule="evenodd" d="M5 11.5a.5.5 0 0 1 .5-.5h9a.5.5 0 0 1 0 1h-9a.5.5 0 0 1-.5-.5m0-4a.5.5 0 0 1 .5-.5h9a.5.5 0 0 1 0 1h-9a.5.5 0 0 1-.5-.5m0-4a.5.5 0 0 1 .5-.5h9a.5.5 0 0 1 0 1h-9a.5.5 0 0 1-.5-.5m-3 1a1 1 0 1 0 0-2 1 1 0 0 0 0 2m0 4a1 1 0 1 0 0-2 1 1 0 0 0 0 2m0 4a1 1 0 1 0 0-2 1 1 0 0 0 0 2"/>
        </symbol>
        <symbol id="icon-download" viewBox="0 0 16 16">
            <title>Download</title>
            <path fill="currentColor" d="M.5 9.9a.5.5 0 0 1 .5.5v2.5a1 1 0 0 0 1 1h12a1 1 0 0 0 1-1v-2.5a.5.5 0 0 1 1 0v2.5a2 2 0 0 1-2 2H2a2 2 0 0 1-2-2v-2.5a.5.5 0 0 1 .5-.5"/>
            <path fill="currentColor" d="M7.646 11.854a.5.5 0 0 0 .708 0l3-3a.5.5 0 0 0-.708-.708L8.5 10.293V1.5a.5.5 0 0 0-1 0v8.793L5.354 8.146a.5.5 0 1 0-.708.708l3 3z"/>
        </symbol>
        <symbol id="icon-send" viewBox="0 0 16 16">
            <title>Send</title>
            <path fill="currentColor" d="M15.854.146a.5.5 0 0 1 .11.54l-5.819 14.547a.75.75 0 0 1-1.329.124l-3.178-4.995L.643 7.184a.75.75 0 0 1 .124-1.33L15.314.037a.5.5 0 0 1 .54.11ZM6.636 10.07l2.761 4.338L14.13 2.576zm6.787-8.201L1.591 6.602l4.339 2.76 7.494-7.493Z"/>
        </symbol>
        <symbol id="icon-qr-code-scan" viewBox="0 0 16 16">
            <title>QR Code Scan</title>
            <path fill="currentColor" d="M0 .5A.5.5 0 0 1 .5 0h3a.5.5 0 0 1 0 1H1v2.5a.5.5 0 0 1-1 0zm12 0a.5.5 0 0 1 .5-.5h3a.5.5 0 0 1 .5.5v3a.5.5 0 0 1-1 0V1h-2.5a.5.5 0 0 1-.5-.5M.5 12a.5.5 0 0 1 .5.5V15h2.5a.5.5 0 0 1 0 1h-3a.5.5 0 0 1-.5-.5v-3a.5.5 0 0 1 .5-.5m15 0a.5.5 0 0 1 .5.5v3a.5.5 0 0 1-.5.5h-3a.5.5 0 0 1 0-1H15v-2.5a.5.5 0 0 1 .5-.5M4 4h1v1H4z"/>
            <path fill="currentColor" d="M7 2H2v5h5zM3 3h3v3H3zm2 8H4v1h1z"/>
            <path fill="currentColor" d="M7 9H2v5h5zm-4 1h3v3H3zm8-6h1v1h-1z"/>
            <path fill="currentColor" d="M9 2h5v5H9zm1 1v3h3V3zM8 8v2h1v1H8v1h2v-2h1v2h1v-1h2v-1h-3V8zm2 2H9V9h1zm4 2h-1v1h-2v1h3zm-4 2v-1H8v1z"/>
            <path fill="currentColor" d="M12 9h2V8h-2z"/>
        </symbol>
        <symbol id="icon-camera-reels" viewBox="0 0 16 16">
            <title>Camera reels</title>
            <path fill="currentColor" d="M6 3a3 3 0 1 1-6 0 3 3 0 0 1 6 0M1 3a2 2 0 1 0 4 0 2 2 0 0 0-4 0"/>
            <path fill="currentColor" d="M9 6h.5a2 2 0 0 1 1.983 1.738l3.11-1.382A1 1 0 0 1 16 7.269v7.462a1 1 0 0 1-1.406.913l-3.111-1.382A2 2 0 0 1 9.5 16H2a2 2 0 0 1-2-2V8a2 2 0 0 1 2-2zm6 8.73V7.27l-3.5 1.555v4.35l3.5 1.556zM1 8v6a1 1 0 0 0 1 1h7.5a1 1 0 0 0 1-1V8a1 1 0 0 0-1-1H2a1 1 0 0 0-1 1"/>
            <path fill="currentColor" d="M9 6a3 3 0 1 0 0-6 3 3 0 0 0 0 6M7 3a2 2 0 1 1 4 0 2 2 0 0 1-4 0"/>
        </symbol>
        <symbol id="icon-search" viewBox="0 0 16 16">
            <title>Search</title>
            <path fill="currentColor" d="M11.742 10.344a6.5 6.5 0 1 0-1.397 1.398h-.001c.03.04.062.078.098.115l3.85 3.85a1 1 0 0 0 1.415-1.414l-3.85-3.85a1.007 1.007 0 0 0-.115-.1zM12 6.5a5.5 5.5 0 1 1-11 0 5.5 5.5 0 0 1 11 0"/>
        </symbol>
        <symbol id="icon-rss" viewBox="0 0 16 16">
            <title>RSS</title>
            <path fill="currentColor" d="M2 0a2 2 0 0 0-2 2v12a2 2 0 0 0 2 2h12a2 2 0 0 0 2-2V2a2 2 0 0 0-2-2zm1.5 2.5c5.523 0 10 4.477 10 10a1 1 0 1 1-2 0 8 8 0 0 0-8-8 1 1 0 0 1 0-2m0 4a6 6 0 0 1 6 6 1 1 0 1 1-2 0 4 4 0 0 0-4-4 1 1 0 0 1 0-2m.5 7a1.5 1.5 0 1 1 0-3 1.5 1.5 0 0 1 0 3"/>
        </symbol>
        <symbol id="icon-check" viewBox="0 0 16 16">
            <title>Check</title>
            <path fill="currentColor" d="M10.97 4.97a.75.75 0 0 1 1.07 1.05l-3.99 4.99a.75.75 0 0 1-1.08.02L4.324 8.384a.75.75 0 1 1 1.06-1.06l2.094 2.093 3.473-4.425z"/>
        </symbol>
        <symbol id="icon-check-lg" viewBox="0 0 16 16">
            <title>Check lg</title>
            <path fill="currentColor" d="M12.736 3.97a.733.733 0 0 1 1.047 0c.286.289.29.756.01 1.05L7.88 12.01a.733.733 0 0 1-1.065.02L3.217 8.384a.757.757 0 0 1 0-1.06.733.733 0 0 1 1.047 0l3.052 3.093 5.4-6.425a.247.247 0 0 1 .02-.022"/>
        </symbol>
        <symbol id="icon-check-circle" viewBox="0 0 16 16">
            <title>Check circle</title>
            <path fill="currentColor" d="M8 15A7 7 0 1 1 8 1a7 7 0 0 1 0 14m0 1A8 8 0 1 0 8 0a8 8 0 0 0 0 16"/>
            <path fill="currentColor" d="m10.97 4.97-.02.022-3.473 4.425-2.093-2.094a.75.75 0 0 0-1.06 1.06L6.97 11.03a.75.75 0 0 0 1.079-.02l3.992-4.99a.75.75 0 0 0-1.071-1.05"/>
        </symbol>
        <symbol id="icon-x" viewBox="0 0 16 16">
            <title>X</title>
            <path fill="currentColor" d="M4.646 4.646a.5.5 0 0 1 .708 0L8 7.293l2.646-2.647a.5.5 0 0 1 .708.708L8.707 8l2.647 2.646a.5.5 0 0 1-.708.708L8 8.707l-2.646 2.647a.5.5 0 0 1-.708-.708L7.293 8 4.646 5.354a.5.5 0 0 1 0-.708"/>
        </symbol>
        <symbol id="icon-x-lg" viewBox="0 0 16 16">
            <title>X lg</title>
            <path fill="currentColor" d="M2.146 2.854a.5.5 0 1 1 .708-.708L8 7.293l5.146-5.147a.5.5 0 0 1 .708.708L8.707 8l5.147 5.146a.5.5 0 0 1-.708.708L8 8.707l-5.146 5.147a.5.5 0 0 1-.708-.708L7.293 8z"/>
        </symbol>
        <symbol id="icon-x-circle" viewBox="0 0 16 16">
            <title>X circle</title>
            <path fill="currentColor" d="M8 15A7 7 0 1 1 8 1a7 7 0 0 1 0 14m0 1A8 8 0 1 0 8 0a8 8 0 0 0 0 16"/>
            <path fill="currentColor" d="M4.646 4.646a.5.5 0 0 1 .708 0L8 7.293l2.646-2.647a.5.5 0 0 1 .708.708L8.707 8l2.647 2.646a.5.5 0 0 1-.708.708L8 8.707l-2.646 2.647a.5.5 0 0 1-.708-.708L7.293 8 4.646 5.354a.5.5 0 0 1 0-.708"/>
        </symbol>
        <symbol id="icon-file-earmark-excel" viewBox="0 0 16 16">
            <title>File earmark excel</title>
            <path fill="currentColor" d="M5.884 6.68a.5.5 0 1 0-.768.64L7.349 10l-2.233 2.68a.5.5 0 0 0 .768.64L8 10.781l2.116 2.54a.5.5 0 0 0 .768-.641L8.651 10l2.233-2.68a.5.5 0 0 0-.768-.64L8 9.219l-2.116-2.54z"/>
            <path fill="currentColor" d="M14 14V4.5L9.5 0H4a2 2 0 0 0-2 2v12a2 2 0 0 0 2 2h8a2 2 0 0 0 2-2M9.5 3A1.5 1.5 0 0 0 11 4.5h2V14a1 1 0 0 1-1 1H4a1 1 0 0 1-1-1V2a1 1 0 0 1 1-1h5.5z"/>
        </symbol>
        <symbol id="icon-file-earmark-word" viewBox="0 0 16 16">
            <title>File earmark Word</title>
            <path fill="currentColor" d="M5.485 6.879a.5.5 0 1 0-.97.242l1.5 6a.5.5 0 0 0 .967.01L8 9.402l1.018 3.73a.5.5 0 0 0 .967-.01l1.5-6a.5.5 0 0 0-.97-.242l-1.036 4.144-.997-3.655a.5.5 0 0 0-.964 0l-.997 3.655L5.485 6.88z"/>
            <path fill="currentColor" d="M14 14V4.5L9.5 0H4a2 2 0 0 0-2 2v12a2 2 0 0 0 2 2h8a2 2 0 0 0 2-2M9.5 3A1.5 1.5 0 0 0 11 4.5h2V14a1 1 0 0 1-1 1H4a1 1 0 0 1-1-1V2a1 1 0 0 1 1-1h5.5z"/>
        </symbol>
        <symbol id="icon-file-earmark-pdf" viewBox="0 0 16 16">
            <title>File earmark pdf</title>
            <path fill="currentColor" d="M14 14V4.5L9.5 0H4a2 2 0 0 0-2 2v12a2 2 0 0 0 2 2h8a2 2 0 0 0 2-2M9.5 3A1.5 1.5 0 0 0 11 4.5h2V14a1 1 0 0 1-1 1H4a1 1 0 0 1-1-1V2a1 1 0 0 1 1-1h5.5z"/>
            <path fill="currentColor" d="M4.603 14.087a.81.81 0 0 1-.438-.42c-.195-.388-.13-.776.08-1.102.198-.307.526-.568.897-.787a7.68 7.68 0 0 1 1.482-.645 19.697 19.697 0 0 0 1.062-2.227 7.269 7.269 0 0 1-.43-1.295c-.086-.4-.119-.796-.046-1.136.075-.354.274-.672.65-.823.192-.077.4-.12.602-.077a.7.7 0 0 1 .477.365c.088.164.12.356.127.538.007.188-.012.396-.047.614-.084.51-.27 1.134-.52 1.794a10.954 10.954 0 0 0 .98 1.686 5.753 5.753 0 0 1 1.334.05c.364.066.734.195.96.465.12.144.193.32.2.518.007.192-.047.382-.138.563a1.04 1.04 0 0 1-.354.416.856.856 0 0 1-.51.138c-.331-.014-.654-.196-.933-.417a5.712 5.712 0 0 1-.911-.95 11.651 11.651 0 0 0-1.997.406 11.307 11.307 0 0 1-1.02 1.51c-.292.35-.609.656-.927.787a.793.793 0 0 1-.58.029zm1.379-1.901c-.166.076-.32.156-.459.238-.328.194-.541.383-.647.547-.094.145-.096.25-.04.361.01.022.02.036.026.044a.266.266 0 0 0 .035-.012c.137-.056.355-.235.635-.572a8.18 8.18 0 0 0 .45-.606zm1.64-1.33a12.71 12.71 0 0 1 1.01-.193 11.744 11.744 0 0 1-.51-.858 20.801 20.801 0 0 1-.5 1.05zm2.446.45c.15.163.296.3.435.41.24.19.407.253.498.256a.107.107 0 0 0 .07-.015.307.307 0 0 0 .094-.125.436.436 0 0 0 .059-.2.095.095 0 0 0-.026-.063c-.052-.062-.2-.152-.518-.209a3.876 3.876 0 0 0-.612-.053zM8.078 7.8a6.7 6.7 0 0 0 .2-.828c.031-.188.043-.343.038-.465a.613.613 0 0 0-.032-.198.517.517 0 0 0-.145.04c-.087.035-.158.106-.196.283-.04.192-.03.469.046.822.024.111.054.227.09.346z"/>
        </symbol>
        <symbol id="icon-file-earmark-arrow-down" viewBox="0 0 16 16">
            <title>File earmark arrow down</title>
            <path fill="currentColor" d="M8.5 6.5a.5.5 0 0 0-1 0v3.793L6.354 9.146a.5.5 0 1 0-.708.708l2 2a.5.5 0 0 0 .708 0l2-2a.5.5 0 0 0-.708-.708L8.5 10.293z"/>
            <path fill="currentColor" d="M14 14V4.5L9.5 0H4a2 2 0 0 0-2 2v12a2 2 0 0 0 2 2h8a2 2 0 0 0 2-2M9.5 3A1.5 1.5 0 0 0 11 4.5h2V14a1 1 0 0 1-1 1H4a1 1 0 0 1-1-1V2a1 1 0 0 1 1-1h5.5z"/>
        </symbol>
        <symbol id="icon-link" viewBox="0 0 36 36">
            <title>Icon link</title>
            <path d="M19.813 22.778C18.077 22.778 16.445 22.102 15.217 20.874C14.792 20.45 14.428 19.97 14.136 19.448C13.866 18.966 14.038 18.357 14.521 18.087C15.004 17.817 15.613 17.99 15.882 18.471C16.083 18.832 16.336 19.164 16.631 19.459C17.481 20.31 18.61 20.777 19.813 20.777C21.016 20.777 22.145 20.309 22.996 19.459L30.773 11.681C31.624 10.831 32.091 9.70102 32.091 8.49902C32.091 7.29702 31.623 6.16702 30.773 5.31702C29.923 4.46702 28.794 3.99902 27.591 3.99902C26.388 3.99902 25.259 4.46702 24.409 5.31702L18.569 11.157C18.178 11.548 17.546 11.548 17.155 11.157C16.764 10.766 16.764 10.134 17.155 9.74302L22.995 3.90302C24.223 2.67502 25.854 1.99902 27.591 1.99902C29.328 1.99902 30.959 2.67502 32.187 3.90302C33.415 5.13102 34.091 6.76302 34.091 8.49902C34.091 10.235 33.414 11.868 32.187 13.095L24.41 20.873C23.182 22.101 21.55 22.778 19.813 22.778ZM13.096 32.188L18.936 26.348C19.327 25.957 19.327 25.325 18.936 24.934C18.545 24.543 17.913 24.543 17.522 24.934L11.682 30.774C10.832 31.624 9.703 32.092 8.5 32.092C7.297 32.092 6.168 31.624 5.318 30.774C4.467 29.924 4 28.794 4 27.592C4 26.39 4.468 25.26 5.318 24.41L13.095 16.632C13.946 15.782 15.075 15.314 16.278 15.314C17.481 15.314 18.61 15.782 19.46 16.632C19.755 16.927 20.008 17.259 20.209 17.62C20.48 18.102 21.088 18.274 21.57 18.004C22.052 17.734 22.224 17.125 21.955 16.643C21.663 16.121 21.299 15.642 20.874 15.217C19.646 13.989 18.015 13.313 16.278 13.313C14.541 13.313 12.909 13.989 11.681 15.217L3.904 22.995C2.676 24.223 2 25.855 2 27.591C2 29.327 2.677 30.96 3.904 32.187C5.131 33.414 6.763 34.091 8.5 34.091C10.237 34.091 11.868 33.416 13.096 32.188Z" fill="currentColor"/>
        </symbol>
        <symbol id="icon-calendar" viewBox="0 0 16 16">
            <title>Calendar3</title>
            <path fill="currentColor" d="M14 0H2a2 2 0 0 0-2 2v12a2 2 0 0 0 2 2h12a2 2 0 0 0 2-2V2a2 2 0 0 0-2-2M1 3.857C1 3.384 1.448 3 2 3h12c.552 0 1 .384 1 .857v10.286c0 .473-.448.857-1 .857H2c-.552 0-1-.384-1-.857z"/>
            <path fill="currentColor" d="M6.5 7a1 1 0 1 0 0-2 1 1 0 0 0 0 2m3 0a1 1 0 1 0 0-2 1 1 0 0 0 0 2m3 0a1 1 0 1 0 0-2 1 1 0 0 0 0 2m-9 3a1 1 0 1 0 0-2 1 1 0 0 0 0 2m3 0a1 1 0 1 0 0-2 1 1 0 0 0 0 2m3 0a1 1 0 1 0 0-2 1 1 0 0 0 0 2m3 0a1 1 0 1 0 0-2 1 1 0 0 0 0 2m-9 3a1 1 0 1 0 0-2 1 1 0 0 0 0 2m3 0a1 1 0 1 0 0-2 1 1 0 0 0 0 2m3 0a1 1 0 1 0 0-2 1 1 0 0 0 0 2"/>
        </symbol>
        <symbol id="icon-calendar-event" viewBox="0 0 16 16">
            <title>Calendar event</title>
            <path fill="currentColor" d="M11 6.5a.5.5 0 0 1 .5-.5h1a.5.5 0 0 1 .5.5v1a.5.5 0 0 1-.5.5h-1a.5.5 0 0 1-.5-.5z"/>
            <path fill="currentColor" d="M3.5 0a.5.5 0 0 1 .5.5V1h8V.5a.5.5 0 0 1 1 0V1h1a2 2 0 0 1 2 2v11a2 2 0 0 1-2 2H2a2 2 0 0 1-2-2V3a2 2 0 0 1 2-2h1V.5a.5.5 0 0 1 .5-.5M1 4v10a1 1 0 0 0 1 1h12a1 1 0 0 0 1-1V4z"/>
        </symbol>
        <symbol id="icon-arrow-top" viewBox="0 0 36 36">
            <title>Arrow top</title>
            <path fill="currentColor" d="M30.041 13.96L18.374 2.29301C17.983 1.90201 17.351 1.90201 16.96 2.29301L5.29301 13.96C4.90201 14.35 4.90201 14.984 5.29301 15.374C5.68401 15.765 6.31601 15.765 6.70701 15.374L16.667 5.41401V33C16.667 33.552 17.114 34 17.667 34C18.22 34 18.667 33.552 18.667 33V5.41401L28.627 15.374C28.822 15.569 29.078 15.667 29.334 15.667C29.59 15.667 29.846 15.569 30.041 15.374C30.432 14.984 30.432 14.35 30.041 13.96Z"/>
        </symbol>
        <symbol id="icon-arrow-right" viewBox="0 0 36 36">
            <title>Arrow right</title>
            <path fill="currentColor" d="M33.414 16.7517L23.247 6.58575C22.466 5.80475 21.2 5.80475 20.419 6.58575C19.638 7.36675 19.638 8.63375 20.419 9.41475L27.172 16.1667H4C2.896 16.1667 2 17.0627 2 18.1667C2 19.2708 2.896 20.1667 4 20.1667H27.172L20.419 26.9188C19.638 27.6998 19.638 28.9657 20.419 29.7477C20.81 30.1377 21.321 30.3337 21.833 30.3337C22.345 30.3337 22.856 30.1388 23.247 29.7477L33.414 19.5808C33.789 19.2058 34 18.6967 34 18.1667C34 17.6368 33.789 17.1278 33.414 16.7528V16.7517Z"/>
        </symbol>
        <symbol id="icon-arrow-bottom" viewBox="0 0 36 36">
            <title>Arrow bottom</title>
            <path fill="currentColor" d="M30.041 20.626C29.65 20.235 29.018 20.235 28.627 20.626L18.667 30.586V3C18.667 2.448 18.22 2 17.667 2C17.114 2 16.667 2.448 16.667 3V30.586L6.70701 20.626C6.31601 20.235 5.68401 20.235 5.29301 20.626C4.90201 21.016 4.90201 21.65 5.29301 22.04L16.96 33.707C17.155 33.902 17.411 34 17.667 34C17.923 34 18.179 33.902 18.374 33.707L30.041 22.04C30.432 21.65 30.432 21.016 30.041 20.626Z"/>
        </symbol>
        <symbol id="icon-arrow-left" viewBox="0 0 36 36">
            <title>Arrow left</title>
            <path fill="currentColor" d="M33 16.667H5.414L15.374 6.70701C15.765 6.31701 15.765 5.68301 15.374 5.29301C14.983 4.90201 14.351 4.90201 13.96 5.29301L2.293 16.96C2.105 17.148 2 17.402 2 17.667C2 17.932 2.105 18.187 2.293 18.374L13.96 30.041C14.155 30.236 14.411 30.334 14.667 30.334C14.923 30.334 15.179 30.236 15.374 30.041C15.765 29.651 15.765 29.017 15.374 28.627L5.414 18.667H33C33.553 18.667 34 18.219 34 17.667C34 17.115 33.553 16.667 33 16.667Z"/>
        </symbol>
        <symbol id="icon-stopwatch" viewBox="0 0 16 16">
            <title>Stopwatch</title>
            <path fill="currentColor" d="M8.5 5.6a.5.5 0 1 0-1 0v2.9h-3a.5.5 0 0 0 0 1H8a.5.5 0 0 0 .5-.5z"/>
            <path fill="currentColor" d="M6.5 1A.5.5 0 0 1 7 .5h2a.5.5 0 0 1 0 1v.57c1.36.196 2.594.78 3.584 1.64l.012-.013.354-.354-.354-.353a.5.5 0 0 1 .707-.708l1.414 1.415a.5.5 0 1 1-.707.707l-.353-.354-.354.354-.013.012A7 7 0 1 1 7 2.071V1.5a.5.5 0 0 1-.5-.5M8 3a6 6 0 1 0 .001 12A6 6 0 0 0 8 3"/>
        </symbol>
        <symbol id="icon-info" viewBox="0 0 16 16">
            <title>Info</title>
            <path fill="currentColor" d="M8 15A7 7 0 1 1 8 1a7 7 0 0 1 0 14m0 1A8 8 0 1 0 8 0a8 8 0 0 0 0 16"/>
            <path fill="currentColor" d="m8.93 6.588-2.29.287-.082.38.45.083c.294.07.352.176.288.469l-.738 3.468c-.194.897.105 1.319.808 1.319.545 0 1.178-.252 1.465-.598l.088-.416c-.2.176-.492.246-.686.246-.275 0-.375-.193-.304-.533zM9 4.5a1 1 0 1 1-2 0 1 1 0 0 1 2 0"/>
        </symbol>
    </defs>
</svg>
